<?xml version="1.0" encoding="utf-8"?>
<!-- Generator: Adobe Illustrator 29.3.1, SVG Export Plug-In . SVG Version: 9.03 Build 55982)  -->
<svg version="1.1" baseProfile="basic" id="Layer_1"
	 xmlns="http://www.w3.org/2000/svg" xmlns:xlink="http://www.w3.org/1999/xlink" x="0px" y="0px" viewBox="0 0 412.57 194.08"
	 xml:space="preserve">
<g>
	<g>
		<path d="M24.86,39.27c7.38,54.99,9.24,70.57,10.23,84h0.22c1.42-14.08,5.01-31.93,13.47-84h18.35
			c8.51,53.2,11.92,70.2,13.06,84.03h0.22c1.08-12.01,2.09-23.99,10.51-84.03h19.41L89.65,150.3H70.41
			c-5.48-33.95-11.14-62.49-13-79.23h-0.22c-1.3,15.64-6.83,42.13-13.65,79.23H24.01L4.33,39.27H24.86z"/>
		<path d="M117.75,117.27v-14.66c0-17.65,7.41-23.26,14.13-27.47c-7.65-4.8-12.12-11.9-12.12-26.81v-6.75
			c0-22.11,11.33-33.25,30.75-33.25c17.02,0,29.36,9.13,29.36,33.57v6.04c0,17.39-5.68,23.2-12.23,27.04
			c8.42,4.21,14.04,11.49,14.04,27.58V116c0,25.97-11.5,36.03-32.34,36.03C131.56,152.03,117.75,143.87,117.75,117.27z
			 M162.39,118.27v-18.06c0-12.05-4.49-16.58-12.84-16.58c-8.35,0-12.61,5.25-12.61,16.66v17.93c0,10.23,3.69,17.22,12.69,17.22
			C158.85,135.45,162.39,129.6,162.39,118.27z M138.11,40.43v11.32c0,9.39,4.02,15.31,11.81,15.31c7.47,0,11.44-4.6,11.44-15.67
			V40.36c0-8.79-2.29-15.61-11.59-15.61C141,24.75,138.11,31.55,138.11,40.43z"/>
		<path d="M237.67,41.7v-1.77c0-6.24-1.23-15.57-11.14-15.57c-9.84,0-12.56,7.08-12.56,23.21v19.72c3.44-5.53,9.05-10.1,19.48-10.1
			c17.75,0,24.32,14.02,24.32,32.4v24.23c0,21.51-6.65,38.21-31.67,38.21c-26.15,0-31.18-18.89-31.18-38.63V49.85
			c0-23.89,6.35-41.68,31.68-41.68c25.5,0,29.36,18.89,29.36,32.6v0.93H237.67z M238.58,116.65V92.44
			c0-10.86-2.31-18.16-11.72-18.16c-9.8,0-12.89,7.64-12.89,20.29v22.08c0,10.32,2.31,19.41,12.35,19.41
			C235.45,136.06,238.58,129.27,238.58,116.65z"/>
		<path d="M328.93,129.04c0,7.24,0.06,17.44,0.43,21.26h-17.77c-0.5-2.33-1.17-6.8-1.32-8.51c-3.69,7.38-10.04,10.24-18.25,10.24
			c-16.42,0-23.01-14.95-23.01-31.86v-1.94c0-26.42,17.25-34.37,37.16-34.37c1.01,0,2.14,0,3.49,0V68.27
			c0-9.26-1.32-14.77-8.87-14.77c-7.4,0-9.28,5.72-9.28,13.36v2.29h-19.05v-1.98c0-15.83,6.13-29.62,29-29.62
			c20.57,0,27.46,11.94,27.46,29.23V129.04z M310.03,98.77c-1.12,0-3.45,0-4.4,0c-11.12,0-18.12,4.42-18.12,19.17v1.79
			c0,8.7,2.94,15.28,10.58,15.28c8.57,0,11.94-6.39,11.94-22.04V98.77z"/>
		<path d="M407.42,145.74c0,23.75-2.44,43.62-32.45,43.62c-25.07,0-29.47-16.16-29.47-28.37v-0.5h19.41v0.56
			c0,4.06,1.51,12.17,11.1,12.17c10.12,0,12.07-7.67,12.07-22.5v-13.02c-2.87,6.74-8.94,10.78-18.49,10.78
			c-18.87,0-24.17-14.33-24.17-34.46V70.98c0-16.95,6.84-33.44,26.49-33.44c11.56,0,16.5,5.59,18.25,11.47
			c0-3.26,0.58-7.69,0.95-9.74h16.75c-0.22,6.55-0.43,16.07-0.43,28.36V145.74z M364.82,72.11v40.45c0,12.52,3.09,18.76,10.77,18.76
			c10.77,0,12.54-9.6,12.54-23.77V74.92c0-10.84-1.12-19.9-11.27-19.9C368.77,55.01,364.82,60.58,364.82,72.11z"/>
	</g>
</g>
</svg>
